<?xml version="1.0" standalone="no"?><!DOCTYPE svg PUBLIC "-//W3C//DTD SVG 1.1//EN" "http://www.w3.org/Graphics/SVG/1.1/DTD/svg11.dtd"><svg t="1697702842352" class="icon" viewBox="0 0 1024 1024" version="1.1" xmlns="http://www.w3.org/2000/svg" p-id="24433" xmlns:xlink="http://www.w3.org/1999/xlink" width="200" height="200"><path d="M596.8 427.2c0-64-52.8-116.8-116.8-116.8s-116.8 52.8-116.8 116.8S416 544 480 544c64 1.6 116.8-51.2 116.8-116.8zM480 481.6c-28.8 0-52.8-24-52.8-52.8 0-28.8 24-52.8 52.8-52.8 28.8 0 52.8 24 52.8 52.8 0 28.8-24 52.8-52.8 52.8zM419.2 158.4c-100.8 22.4-180.8 100.8-208 200l-1.6 6.4 62.4 14.4 1.6-4.8c19.2-76.8 81.6-137.6 160-153.6l-14.4-62.4z" fill="#d4237a" p-id="24434"></path><path d="M971.2 435.2h-64v-8C907.2 192 715.2 0 480 0S52.8 192 52.8 427.2C52.8 659.2 236.8 848 467.2 854.4c-1.6 6.4-1.6 14.4-1.6 20.8 0 81.6 65.6 147.2 147.2 147.2s147.2-65.6 147.2-147.2v-126.4c36.8-32 68.8-70.4 92.8-113.6 27.2-3.2 51.2-16 70.4-35.2 48-48 48-126.4 48-136v-28.8z m-92.8 121.6c-11.2 11.2-25.6 17.6-43.2 17.6h-73.6v-75.2H907.2c-1.6 9.6-4.8 19.2-8 28.8-8 11.2-14.4 22.4-20.8 28.8zM612.8 960c-46.4 0-83.2-36.8-83.2-83.2 0-8 1.6-16 3.2-24 9.6-33.6 41.6-59.2 80-59.2 20.8 0 40 8 54.4 19.2 17.6 16 28.8 38.4 28.8 64 0 46.4-36.8 83.2-83.2 83.2zM480 792c-200 0-363.2-163.2-363.2-363.2S280 65.6 480 65.6s363.2 163.2 363.2 363.2v8h-147.2V721.6l-28.8 19.2c-17.6-6.4-35.2-11.2-54.4-11.2-49.6 0-94.4 24-120 62.4H480z m280-132.8v-20.8h16c-4.8 8-9.6 14.4-16 20.8z" fill="#d4237a" p-id="24435"></path></svg>